<svg width="948" height="100" viewBox="0 0 948 100" fill="none" xmlns="http://www.w3.org/2000/svg">
<path d="M375.402 15V49.7091C355.657 49.7091 339.701 65.2216 339.701 84.4183H304C304.2 46.0249 336.111 15 375.402 15Z" fill="#1C3927"/>
<path d="M217.41 15.3878H254.102C254.102 34.5845 270.501 50.097 290.795 50.097V84.8061C250.208 84.6122 217.41 53.5873 217.41 15.3878Z" fill="#29555F"/>
<path d="M58 15H-3L27.5 50.0975L-3 85H58V15Z" fill="#C39588"/>
<path d="M185.116 85C167.948 85 154 69.1781 154 50C154 30.8219 167.948 15.2398 185.116 15H204V84.9998L185.116 85Z" fill="#83965F"/>
<path d="M70.2835 43.3806C70.458 43.2133 70.6761 43.1297 70.916 43.1297H89.2805L76.3033 30.6857C76.1288 30.5184 76.0415 30.3092 76.0415 30.0792C76.0415 29.8491 76.1288 29.64 76.3033 29.4727L85.1365 21.0024C85.311 20.8351 85.5291 20.7514 85.769 20.7514C86.0308 20.7096 86.2271 20.8351 86.4016 21.0024L99.3788 33.4464V15.8575C99.3788 15.3765 99.7714 15 100.273 15H112.771C113.272 15 113.665 15.3765 113.665 15.8575V33.4673L126.642 21.0233C126.817 20.856 127.035 20.7723 127.275 20.7723C127.514 20.7723 127.733 20.856 127.907 21.0233L136.74 29.4936C136.915 29.6609 137.002 29.87 137.002 30.1001C137.002 30.3301 136.915 30.5393 136.74 30.7066L123.763 43.1506H142.106C142.607 43.1506 143 43.527 143 44.0081V55.9919C143 56.473 142.607 56.8494 142.106 56.8494H123.741L136.719 69.2934C136.893 69.4607 136.98 69.6699 136.98 69.8999C136.98 70.13 136.893 70.3391 136.719 70.5064L127.885 78.9767C127.711 79.144 127.493 79.2277 127.253 79.2277C127.013 79.2277 126.795 79.144 126.62 78.9767L113.643 66.5327V84.1425C113.643 84.6236 113.25 85 112.749 85H100.251C99.7496 85 99.357 84.6236 99.357 84.1425V66.5327L86.3797 78.9767C86.2053 79.144 86.009 79.2277 85.7472 79.2277C85.5073 79.2277 85.2892 79.144 85.1147 78.9767L76.2814 70.5064C75.9325 70.1718 75.9325 69.628 76.2814 69.2934L89.2587 56.8494H70.8942C70.4144 56.8494 70 56.473 70 55.9919V44.0081C70 43.778 70.0872 43.5689 70.2617 43.4016L70.2835 43.3806ZM100.6 63.6675C100.927 63.7929 101.146 64.1067 101.146 64.4622V83.2641H111.854V64.4622C111.854 64.1067 112.073 63.7929 112.4 63.6675C112.727 63.542 113.12 63.6047 113.381 63.8557L127.253 77.1572L134.843 69.8999L120.971 56.5984C120.71 56.3475 120.644 55.9919 120.775 55.6573C120.906 55.3436 121.233 55.1344 121.604 55.1344H141.212V44.8656H121.604C121.233 44.8656 120.906 44.6564 120.775 44.3427C120.644 44.029 120.71 43.6525 120.971 43.4016L134.843 30.1001L127.275 22.8219L113.403 36.1234C113.141 36.3744 112.771 36.4371 112.443 36.3116C112.116 36.1861 111.898 35.8724 111.898 35.5169V16.715H101.189V35.5169C101.189 35.8724 100.971 36.1652 100.644 36.3116C100.317 36.4371 99.9241 36.3744 99.6624 36.1234L85.7909 22.8219L78.2226 30.1001L92.0941 43.4016C92.3558 43.6525 92.4213 44.0081 92.2904 44.3427C92.1595 44.6564 91.8324 44.8656 91.4616 44.8656H71.8539V55.1344H91.4616C91.8324 55.1344 92.1595 55.3436 92.2904 55.6573C92.4213 55.971 92.3558 56.3475 92.0941 56.5984L78.2226 69.8999L85.7909 77.1572L99.6624 63.8557C99.9241 63.6047 100.295 63.542 100.622 63.6675H100.6Z" fill="#83965F"/>
<path d="M446.112 15.2778V84.7222L416.11 50.0967L385.94 84.7222V15.2778H446.112Z" fill="#BB8585"/>
<path d="M672.669 48.6606H697.22L673.48 42.2725L674.089 39.7997L697.828 46.1878L676.524 33.8238L677.944 31.557L699.046 43.921L681.799 26.4054L683.625 24.5508L700.872 42.0664L688.698 20.6355L690.93 19.193L703.104 40.83L696.814 16.7202L699.249 16.102L705.539 40.2118V15.2778H708.176V40.2118L714.466 16.102L716.901 16.7202L710.611 40.83L722.785 19.193L725.017 20.6355L712.843 42.0664L730.089 24.5508L731.915 26.4054L714.669 43.921L735.771 31.557L737.191 33.8238L715.886 46.1878L739.626 39.7997L740.234 42.2725L716.495 48.6606H741.046V51.3394H716.495L740.234 57.7275L739.626 60.2003L715.886 53.8122L737.191 66.1762L735.771 68.4429L714.669 56.079L731.915 73.5946L730.089 75.4492L712.843 57.9336L725.017 79.3645L722.785 80.8069L710.611 59.17L716.901 83.2797L714.466 83.8979L708.176 59.7882V84.7222H705.539V59.7882L699.249 83.8979L696.814 83.2797L703.104 59.17L690.93 80.8069L688.698 79.3645L700.872 57.9336L683.625 75.4492L681.799 73.5946L699.046 56.079L677.944 68.4429L676.524 66.1762L697.828 53.8122L674.089 60.2003L673.48 57.7275L697.22 51.3394H672.669V48.6606Z" fill="#29555F"/>
<path d="M753.419 47.7475C775.092 41.1131 778.598 31.2598 783.493 17.5986L784.808 13.8889L786.122 17.5986C790.993 31.2598 794.524 41.1131 816.196 47.7475L818.996 48.6111L816.196 49.4747C794.548 56.1091 791.017 65.9624 786.122 79.6236L784.808 83.3333L783.493 79.6236C778.622 65.9624 775.092 56.1091 753.419 49.4747L750.619 48.6111L753.419 47.7475ZM756.877 48.6111C776.358 55.2454 780.497 64.7651 784.808 76.7186C789.118 64.7651 793.257 55.2454 812.738 48.6111C793.257 41.9768 789.118 32.4571 784.808 20.5036C780.497 32.4571 776.358 41.9768 756.877 48.6111Z" fill="#C39588"/>
<path d="M514.754 43.4332C514.918 43.2672 515.122 43.1842 515.347 43.1842H532.548L520.393 30.839C520.229 30.673 520.148 30.4655 520.148 30.2373C520.148 30.009 520.229 29.8016 520.393 29.6356L528.667 21.2325C528.83 21.0665 529.034 20.9835 529.259 20.9835C529.504 20.942 529.688 21.0665 529.852 21.2325L542.007 33.5777V16.1284C542.007 15.6512 542.375 15.2778 542.845 15.2778H554.551C555.02 15.2778 555.388 15.6512 555.388 16.1284V33.5985L567.544 21.2533C567.707 21.0873 567.911 21.0043 568.136 21.0043C568.361 21.0043 568.565 21.0873 568.729 21.2533L577.002 29.6563C577.166 29.8223 577.248 30.0298 577.248 30.258C577.248 30.4862 577.166 30.6937 577.002 30.8597L564.847 43.2049H582.028C582.498 43.2049 582.866 43.5784 582.866 44.0556V55.9444C582.866 56.4216 582.498 56.795 582.028 56.795H564.827L576.982 69.1403C577.146 69.3063 577.227 69.5137 577.227 69.742C577.227 69.9702 577.146 70.1777 576.982 70.3437L568.708 78.7467C568.545 78.9127 568.34 78.9957 568.116 78.9957C567.891 78.9957 567.687 78.9127 567.523 78.7467L555.368 66.4015V83.8715C555.368 84.3487 555 84.7222 554.53 84.7222H542.824C542.354 84.7222 541.987 84.3487 541.987 83.8715V66.4015L529.831 78.7467C529.668 78.9127 529.484 78.9957 529.239 78.9957C529.014 78.9957 528.81 78.9127 528.646 78.7467L520.372 70.3437C520.045 70.0117 520.045 69.4722 520.372 69.1403L532.528 56.795H515.326C514.877 56.795 514.489 56.4216 514.489 55.9444V44.0556C514.489 43.8274 514.57 43.6199 514.734 43.4539L514.754 43.4332ZM543.151 63.559C543.457 63.6835 543.662 63.9947 543.662 64.3474V83.0001H553.693V64.3474C553.693 63.9947 553.897 63.6835 554.203 63.559C554.51 63.4345 554.877 63.4967 555.123 63.7457L568.116 76.9416L575.225 69.742L562.232 56.5461C561.987 56.2971 561.926 55.9444 562.048 55.6124C562.171 55.3012 562.477 55.0937 562.825 55.0937H581.191V44.9063H562.825C562.477 44.9063 562.171 44.6988 562.048 44.3876C561.926 44.0764 561.987 43.7029 562.232 43.4539L575.225 30.258L568.136 23.0376L555.143 36.2335C554.898 36.4825 554.551 36.5447 554.244 36.4203C553.938 36.2958 553.733 35.9845 553.733 35.6318V16.9791H543.703V35.6318C543.703 35.9845 543.498 36.275 543.192 36.4203C542.885 36.5447 542.518 36.4825 542.273 36.2335L529.279 23.0376L522.191 30.258L535.184 43.4539C535.429 43.7029 535.49 44.0556 535.367 44.3876C535.245 44.6988 534.938 44.9063 534.591 44.9063H516.225V55.0937H534.591C534.938 55.0937 535.245 55.3012 535.367 55.6124C535.49 55.9236 535.429 56.2971 535.184 56.5461L522.191 69.742L529.279 76.9416L542.273 63.7457C542.518 63.4967 542.865 63.4345 543.171 63.559H543.151Z" fill="#1C3927"/>
<path d="M863.212 15.2778H829.023V50C829.023 69.213 844.294 84.7222 863.212 84.7222C882.13 84.7222 897.4 69.213 897.4 50C897.4 30.787 882.13 15.2778 863.212 15.2778Z" fill="#1C3927"/>
<path d="M947.999 84.2226V15.7782C947.999 15.5163 947.766 15.2987 947.466 15.279C947.168 15.2604 946.902 15.4471 946.859 15.706L944.393 30.5167L936.726 15.9209C936.607 15.6942 936.316 15.579 936.043 15.6494C935.769 15.7188 935.583 15.9483 935.637 16.1994L938.231 32.0954L926.158 19.9751C925.972 19.7874 925.655 19.7484 925.415 19.8822C925.175 20.0181 925.085 20.2866 925.203 20.5104L932.828 35.1248L917.329 26.4627C917.089 26.3288 916.773 26.3678 916.586 26.5565C916.4 26.7412 916.398 27.0225 916.586 27.2109L928.622 39.3597L910.954 34.8561C910.68 34.7857 910.39 34.902 910.271 35.1276C910.152 35.3513 910.241 35.62 910.483 35.7558L925.954 44.4542L907.545 44.4766C907.261 44.4766 907.019 44.6593 906.978 44.9056C906.95 45.1597 907.11 45.3871 907.384 45.4566L925.04 50.0001L907.384 54.5447C907.111 54.6151 906.941 54.8534 906.978 55.0957C907.019 55.3417 907.26 55.5254 907.545 55.5254L925.954 55.5468L910.483 64.2452C910.241 64.376 910.152 64.6477 910.271 64.8724C910.39 65.0991 910.68 65.2143 910.954 65.1459L928.622 60.6424L916.586 72.7911C916.4 72.9788 916.4 73.2581 916.586 73.4455C916.773 73.6332 917.089 73.6722 917.329 73.5394L932.828 64.8782L925.203 79.4906C925.085 79.7133 925.174 79.983 925.415 80.1178C925.655 80.2527 925.972 80.2137 926.158 80.026L938.231 67.9064L935.637 83.8005C935.592 84.0448 935.769 84.281 936.043 84.3515C936.316 84.4199 936.607 84.3046 936.726 84.08L944.393 69.4832L946.859 84.2948C946.902 84.5547 947.169 84.7404 947.466 84.7208C947.766 84.7032 947.999 84.4843 947.999 84.2226Z" fill="#BB8585"/>
<path d="M627.995 15.2778H662.183V50C662.183 69.213 646.912 84.7222 627.995 84.7222C609.077 84.7222 593.806 69.213 593.806 50C593.806 30.787 609.077 15.2778 627.995 15.2778Z" fill="#A8A383"/>
<path d="M475.129 15.2778C491.563 15.2778 504.916 30.9741 504.916 50C504.916 69.0259 491.563 84.4843 475.129 84.7222H457.052V15.2778H475.129Z" fill="#29555F"/>
</svg>
