<svg width="393" height="100" viewBox="0 0 393 100" fill="none" xmlns="http://www.w3.org/2000/svg">
<path d="M378.402 15V49.7091C358.656 49.7091 342.701 65.2216 342.701 84.4183H307C307.199 46.0249 339.111 15 378.402 15Z" fill="#1C3927"/>
<path d="M220.41 15.3878H257.103C257.103 34.5845 273.501 50.097 293.795 50.097V84.8061C253.208 84.6122 220.41 53.5873 220.41 15.3878Z" fill="#29555F"/>
<path d="M61 15H0L30.5 50.0975L0 85H61V15Z" fill="#C39588"/>
<path d="M188.116 85C170.948 85 157 69.1781 157 50C157 30.8219 170.948 15.2398 188.116 15H207V84.9998L188.116 85Z" fill="#83965F"/>
<path d="M73.2835 43.3806C73.458 43.2133 73.6761 43.1297 73.916 43.1297H92.2805L79.3033 30.6857C79.1288 30.5184 79.0415 30.3092 79.0415 30.0792C79.0415 29.8491 79.1288 29.64 79.3033 29.4727L88.1365 21.0024C88.311 20.8351 88.5291 20.7514 88.769 20.7514C89.0308 20.7096 89.2271 20.8351 89.4016 21.0024L102.379 33.4464V15.8575C102.379 15.3765 102.771 15 103.273 15H115.771C116.272 15 116.665 15.3765 116.665 15.8575V33.4673L129.642 21.0233C129.817 20.856 130.035 20.7723 130.275 20.7723C130.514 20.7723 130.733 20.856 130.907 21.0233L139.74 29.4936C139.915 29.6609 140.002 29.87 140.002 30.1001C140.002 30.3301 139.915 30.5393 139.74 30.7066L126.763 43.1506H145.106C145.607 43.1506 146 43.527 146 44.0081V55.9919C146 56.473 145.607 56.8494 145.106 56.8494H126.741L139.719 69.2934C139.893 69.4607 139.98 69.6699 139.98 69.8999C139.98 70.13 139.893 70.3391 139.719 70.5064L130.885 78.9767C130.711 79.144 130.493 79.2277 130.253 79.2277C130.013 79.2277 129.795 79.144 129.62 78.9767L116.643 66.5327V84.1425C116.643 84.6236 116.25 85 115.749 85H103.251C102.75 85 102.357 84.6236 102.357 84.1425V66.5327L89.3797 78.9767C89.2053 79.144 89.009 79.2277 88.7472 79.2277C88.5073 79.2277 88.2892 79.144 88.1147 78.9767L79.2814 70.5064C78.9325 70.1718 78.9325 69.628 79.2814 69.2934L92.2587 56.8494H73.8942C73.4144 56.8494 73 56.473 73 55.9919V44.0081C73 43.778 73.0872 43.5689 73.2617 43.4016L73.2835 43.3806ZM103.6 63.6675C103.927 63.7929 104.146 64.1067 104.146 64.4622V83.2641H114.854V64.4622C114.854 64.1067 115.073 63.7929 115.4 63.6675C115.727 63.542 116.12 63.6047 116.381 63.8557L130.253 77.1572L137.843 69.8999L123.971 56.5984C123.71 56.3475 123.644 55.9919 123.775 55.6573C123.906 55.3436 124.233 55.1344 124.604 55.1344H144.212V44.8656H124.604C124.233 44.8656 123.906 44.6564 123.775 44.3427C123.644 44.029 123.71 43.6525 123.971 43.4016L137.843 30.1001L130.275 22.8219L116.403 36.1234C116.141 36.3744 115.771 36.4371 115.443 36.3116C115.116 36.1861 114.898 35.8724 114.898 35.5169V16.715H104.189V35.5169C104.189 35.8724 103.971 36.1652 103.644 36.3116C103.317 36.4371 102.924 36.3744 102.662 36.1234L88.7909 22.8219L81.2226 30.1001L95.0941 43.4016C95.3558 43.6525 95.4213 44.0081 95.2904 44.3427C95.1595 44.6564 94.8324 44.8656 94.4616 44.8656H74.8539V55.1344H94.4616C94.8324 55.1344 95.1595 55.3436 95.2904 55.6573C95.4213 55.971 95.3558 56.3475 95.0941 56.5984L81.2226 69.8999L88.7909 77.1572L102.662 63.8557C102.924 63.6047 103.295 63.542 103.622 63.6675H103.6Z" fill="#83965F"/>
</svg>
