<svg width="393" height="100" viewBox="0 0 393 100" fill="none" xmlns="http://www.w3.org/2000/svg">
<path d="M14.5984 15V49.7091C34.3435 49.7091 50.2992 65.2216 50.2992 84.4183H86.0001C85.8006 46.0249 53.8893 15 14.5984 15Z" fill="#1C3927"/>
<path d="M172.59 15.3878H135.898C135.898 34.5845 119.499 50.097 99.2051 50.097V84.8061C139.792 84.6122 172.59 53.5873 172.59 15.3878Z" fill="#29555F"/>
<path d="M332 15H393L362.5 50.0975L393 85H332V15Z" fill="#C39588"/>
<path d="M204.884 85C222.052 85 236 69.1781 236 50C236 30.8219 222.052 15.2398 204.884 15H186V84.9998L204.884 85Z" fill="#83965F"/>
<path d="M319.716 43.3806C319.542 43.2133 319.324 43.1297 319.084 43.1297H300.719L313.697 30.6857C313.871 30.5184 313.958 30.3092 313.958 30.0792C313.958 29.8491 313.871 29.64 313.697 29.4727L304.863 21.0024C304.689 20.8351 304.471 20.7514 304.231 20.7514C303.969 20.7096 303.773 20.8351 303.598 21.0024L290.621 33.4464V15.8575C290.621 15.3765 290.229 15 289.727 15H277.229C276.728 15 276.335 15.3765 276.335 15.8575V33.4673L263.358 21.0233C263.183 20.856 262.965 20.7723 262.725 20.7723C262.486 20.7723 262.267 20.856 262.093 21.0233L253.26 29.4936C253.085 29.6609 252.998 29.87 252.998 30.1001C252.998 30.3301 253.085 30.5393 253.26 30.7066L266.237 43.1506H247.894C247.393 43.1506 247 43.527 247 44.0081V55.9919C247 56.473 247.393 56.8494 247.894 56.8494H266.259L253.281 69.2934C253.107 69.4607 253.02 69.6699 253.02 69.8999C253.02 70.13 253.107 70.3391 253.281 70.5064L262.115 78.9767C262.289 79.144 262.507 79.2277 262.747 79.2277C262.987 79.2277 263.205 79.144 263.38 78.9767L276.357 66.5327V84.1425C276.357 84.6236 276.75 85 277.251 85H289.749C290.25 85 290.643 84.6236 290.643 84.1425V66.5327L303.62 78.9767C303.795 79.144 303.991 79.2277 304.253 79.2277C304.493 79.2277 304.711 79.144 304.885 78.9767L313.719 70.5064C314.068 70.1718 314.068 69.628 313.719 69.2934L300.741 56.8494H319.106C319.586 56.8494 320 56.473 320 55.9919V44.0081C320 43.778 319.913 43.5689 319.738 43.4016L319.716 43.3806ZM289.4 63.6675C289.073 63.7929 288.854 64.1067 288.854 64.4622V83.2641H278.146V64.4622C278.146 64.1067 277.927 63.7929 277.6 63.6675C277.273 63.542 276.88 63.6047 276.619 63.8557L262.747 77.1572L255.157 69.8999L269.029 56.5984C269.29 56.3475 269.356 55.9919 269.225 55.6573C269.094 55.3436 268.767 55.1344 268.396 55.1344H248.788V44.8656H268.396C268.767 44.8656 269.094 44.6564 269.225 44.3427C269.356 44.029 269.29 43.6525 269.029 43.4016L255.157 30.1001L262.725 22.8219L276.597 36.1234C276.859 36.3744 277.229 36.4371 277.557 36.3116C277.884 36.1861 278.102 35.8724 278.102 35.5169V16.715H288.811V35.5169C288.811 35.8724 289.029 36.1652 289.356 36.3116C289.683 36.4371 290.076 36.3744 290.338 36.1234L304.209 22.8219L311.777 30.1001L297.906 43.4016C297.644 43.6525 297.579 44.0081 297.71 44.3427C297.84 44.6564 298.168 44.8656 298.538 44.8656H318.146V55.1344H298.538C298.168 55.1344 297.84 55.3436 297.71 55.6573C297.579 55.971 297.644 56.3475 297.906 56.5984L311.777 69.8999L304.209 77.1572L290.338 63.8557C290.076 63.6047 289.705 63.542 289.378 63.6675H289.4Z" fill="#83965F"/>
</svg>
